<svg xmlns="http://www.w3.org/2000/svg" xmlns:xlink="http://www.w3.org/1999/xlink" width="1366" zoomAndPan="magnify" viewBox="0 0 1024.5 576" height="768" preserveAspectRatio="xMidYMid meet" version="1.0"><defs><clipPath id="002fc3f19f"><path d="M 0 0.140625 L 1024 0.140625 L 1024 575.859375 L 0 575.859375 Z M 0 0.140625 " clip-rule="nonzero"/></clipPath><clipPath id="10a4351e73"><path d="M 397.050781 173 L 627.300781 173 L 627.300781 403 L 397.050781 403 Z M 397.050781 173 " clip-rule="nonzero"/></clipPath></defs><g clip-path="url(#002fc3f19f)"><path fill="#ffffff" d="M 0 0.140625 L 1024.5 0.140625 L 1024.5 583.640625 L 0 583.640625 Z M 0 0.140625 " fill-opacity="1" fill-rule="nonzero"/><path fill="#ffffff" d="M 0 0.140625 L 1024.5 0.140625 L 1024.5 576.140625 L 0 576.140625 Z M 0 0.140625 " fill-opacity="1" fill-rule="nonzero"/></g><g clip-path="url(#10a4351e73)"><path fill="#bf53f9" d="M 458.082031 402.949219 L 566.746094 402.949219 C 568.75 402.921875 570.746094 402.796875 572.734375 402.574219 C 574.722656 402.351562 576.699219 402.03125 578.65625 401.613281 C 580.617188 401.199219 582.550781 400.6875 584.460938 400.082031 C 586.367188 399.476562 588.242188 398.777344 590.082031 397.988281 C 591.925781 397.199219 593.722656 396.324219 595.476562 395.359375 C 597.230469 394.394531 598.933594 393.34375 600.585938 392.214844 C 602.238281 391.082031 603.832031 389.871094 605.367188 388.585938 C 606.902344 387.296875 608.367188 385.9375 609.769531 384.507812 C 611.171875 383.078125 612.5 381.582031 613.753906 380.019531 C 615.007812 378.460938 616.183594 376.839844 617.28125 375.164062 C 618.375 373.488281 619.386719 371.765625 620.316406 369.988281 C 621.242188 368.214844 622.082031 366.398438 622.832031 364.542969 C 623.582031 362.683594 624.238281 360.796875 624.804688 358.875 C 625.371094 356.953125 625.839844 355.007812 626.214844 353.042969 C 626.589844 351.074219 626.867188 349.09375 627.050781 347.101562 C 627.230469 345.105469 627.3125 343.105469 627.300781 341.105469 L 627.300781 235.027344 C 627.3125 233.023438 627.230469 231.027344 627.050781 229.03125 C 626.867188 227.035156 626.589844 225.054688 626.214844 223.089844 C 625.839844 221.121094 625.371094 219.175781 624.804688 217.257812 C 624.238281 215.335938 623.582031 213.445312 622.832031 211.589844 C 622.082031 209.730469 621.242188 207.917969 620.316406 206.140625 C 619.386719 204.367188 618.375 202.640625 617.28125 200.964844 C 616.183594 199.289062 615.007812 197.671875 613.753906 196.109375 C 612.5 194.550781 611.171875 193.054688 609.769531 191.625 C 608.367188 190.191406 606.902344 188.832031 605.367188 187.546875 C 603.832031 186.257812 602.238281 185.046875 600.585938 183.917969 C 598.933594 182.785156 597.230469 181.738281 595.476562 180.773438 C 593.722656 179.808594 591.925781 178.929688 590.082031 178.140625 C 588.242188 177.351562 586.367188 176.65625 584.460938 176.050781 C 582.550781 175.445312 580.617188 174.933594 578.65625 174.515625 C 576.699219 174.101562 574.722656 173.78125 572.734375 173.558594 C 570.746094 173.332031 568.75 173.207031 566.746094 173.179688 L 458.082031 173.179688 C 456.082031 173.207031 454.085938 173.332031 452.09375 173.558594 C 450.105469 173.78125 448.128906 174.101562 446.171875 174.515625 C 444.210938 174.933594 442.277344 175.445312 440.371094 176.050781 C 438.460938 176.65625 436.585938 177.351562 434.746094 178.140625 C 432.90625 178.929688 431.105469 179.808594 429.351562 180.773438 C 427.597656 181.738281 425.894531 182.785156 424.242188 183.917969 C 422.589844 185.046875 420.996094 186.257812 419.460938 187.546875 C 417.929688 188.832031 416.460938 190.191406 415.058594 191.625 C 413.660156 193.054688 412.332031 194.550781 411.074219 196.109375 C 409.820312 197.671875 408.644531 199.289062 407.550781 200.964844 C 406.453125 202.640625 405.441406 204.367188 404.511719 206.140625 C 403.585938 207.917969 402.746094 209.730469 401.996094 211.589844 C 401.246094 213.445312 400.589844 215.335938 400.023438 217.257812 C 399.457031 219.175781 398.988281 221.121094 398.613281 223.089844 C 398.238281 225.054688 397.960938 227.035156 397.777344 229.03125 C 397.597656 231.027344 397.515625 233.023438 397.527344 235.027344 L 397.527344 341.105469 C 397.515625 343.105469 397.597656 345.105469 397.777344 347.101562 C 397.960938 349.09375 398.238281 351.074219 398.613281 353.042969 C 398.988281 355.007812 399.457031 356.953125 400.023438 358.875 C 400.589844 360.796875 401.246094 362.683594 401.996094 364.542969 C 402.746094 366.398438 403.585938 368.214844 404.511719 369.988281 C 405.441406 371.765625 406.453125 373.488281 407.550781 375.164062 C 408.644531 376.839844 409.820312 378.460938 411.074219 380.019531 C 412.332031 381.582031 413.660156 383.078125 415.058594 384.507812 C 416.460938 385.9375 417.929688 387.296875 419.460938 388.585938 C 420.996094 389.871094 422.589844 391.082031 424.242188 392.214844 C 425.894531 393.34375 427.597656 394.394531 429.351562 395.359375 C 431.105469 396.324219 432.90625 397.199219 434.746094 397.988281 C 436.585938 398.777344 438.460938 399.476562 440.371094 400.082031 C 442.277344 400.6875 444.210938 401.199219 446.171875 401.613281 C 448.128906 402.03125 450.105469 402.351562 452.09375 402.574219 C 454.085938 402.796875 456.082031 402.921875 458.082031 402.949219 Z M 579.429688 211.476562 C 580.378906 211.457031 581.316406 211.53125 582.25 211.695312 C 583.179688 211.863281 584.089844 212.121094 584.96875 212.464844 C 585.851562 212.8125 586.691406 213.242188 587.484375 213.753906 C 588.28125 214.265625 589.019531 214.851562 589.703125 215.511719 C 590.382812 216.167969 590.992188 216.886719 591.53125 217.664062 C 592.070312 218.445312 592.527344 219.269531 592.902344 220.136719 C 593.277344 221.007812 593.5625 221.90625 593.761719 222.832031 C 593.960938 223.757812 594.066406 224.695312 594.078125 225.640625 C 594.089844 226.585938 594.011719 227.527344 593.835938 228.457031 C 593.664062 229.386719 593.402344 230.292969 593.050781 231.171875 C 592.699219 232.050781 592.261719 232.886719 591.746094 233.679688 C 591.226562 234.472656 590.636719 235.207031 589.976562 235.882812 C 589.3125 236.5625 588.589844 237.164062 587.808594 237.699219 C 587.023438 238.230469 586.199219 238.683594 585.324219 239.054688 C 584.453125 239.421875 583.554688 239.703125 582.628906 239.894531 C 581.699219 240.085938 580.761719 240.1875 579.816406 240.191406 C 578.867188 240.199219 577.929688 240.113281 577 239.933594 C 576.070312 239.753906 575.167969 239.488281 574.289062 239.128906 C 573.414062 238.769531 572.582031 238.332031 571.792969 237.808594 C 571 237.285156 570.269531 236.691406 569.597656 236.023438 C 568.925781 235.355469 568.328125 234.628906 567.800781 233.84375 C 567.269531 233.058594 566.824219 232.226562 566.460938 231.351562 C 566.097656 230.480469 565.820312 229.578125 565.636719 228.648438 C 565.449219 227.71875 565.359375 226.78125 565.359375 225.835938 C 565.355469 224.90625 565.445312 223.984375 565.625 223.070312 C 565.804688 222.15625 566.070312 221.269531 566.421875 220.40625 C 566.773438 219.542969 567.207031 218.722656 567.71875 217.945312 C 568.226562 217.167969 568.808594 216.445312 569.460938 215.78125 C 570.113281 215.117188 570.824219 214.519531 571.589844 213.992188 C 572.359375 213.464844 573.167969 213.019531 574.023438 212.648438 C 574.878906 212.28125 575.761719 211.996094 576.671875 211.800781 C 577.578125 211.601562 578.5 211.492188 579.429688 211.476562 Z M 512.414062 230.621094 C 514.304688 230.582031 516.191406 230.636719 518.074219 230.785156 C 519.957031 230.929688 521.828125 231.167969 523.691406 231.5 C 525.550781 231.832031 527.390625 232.253906 529.207031 232.769531 C 531.027344 233.28125 532.816406 233.882812 534.574219 234.570312 C 536.335938 235.261719 538.054688 236.035156 539.738281 236.894531 C 541.421875 237.753906 543.058594 238.695312 544.648438 239.714844 C 546.238281 240.738281 547.773438 241.835938 549.253906 243.007812 C 550.738281 244.179688 552.15625 245.421875 553.515625 246.734375 C 554.875 248.046875 556.167969 249.421875 557.390625 250.863281 C 558.613281 252.304688 559.761719 253.800781 560.839844 255.355469 C 561.914062 256.90625 562.910156 258.511719 563.828125 260.160156 C 564.746094 261.8125 565.578125 263.507812 566.328125 265.242188 C 567.082031 266.976562 567.742188 268.742188 568.320312 270.542969 C 568.894531 272.339844 569.382812 274.164062 569.777344 276.011719 C 570.175781 277.859375 570.476562 279.722656 570.691406 281.601562 C 570.902344 283.476562 571.023438 285.363281 571.046875 287.25 C 571.074219 289.140625 571.007812 291.027344 570.847656 292.910156 C 570.6875 294.792969 570.4375 296.664062 570.09375 298.519531 C 569.746094 300.378906 569.3125 302.214844 568.789062 304.03125 C 568.261719 305.84375 567.648438 307.628906 566.945312 309.382812 C 566.246094 311.136719 565.457031 312.855469 564.585938 314.53125 C 563.714844 316.207031 562.765625 317.835938 561.734375 319.421875 C 560.703125 321.003906 559.59375 322.53125 558.410156 324.003906 C 557.230469 325.480469 555.976562 326.890625 554.65625 328.242188 C 553.332031 329.589844 551.949219 330.875 550.5 332.085938 C 549.050781 333.300781 547.546875 334.4375 545.984375 335.503906 C 544.425781 336.570312 542.8125 337.554688 541.15625 338.460938 C 539.496094 339.367188 537.800781 340.1875 536.058594 340.925781 C 534.320312 341.667969 532.550781 342.316406 530.746094 342.878906 C 528.941406 343.445312 527.117188 343.917969 525.265625 344.300781 C 523.414062 344.683594 521.550781 344.976562 519.671875 345.175781 C 517.792969 345.375 515.90625 345.480469 514.019531 345.496094 C 512.128906 345.507812 510.242188 345.429688 508.363281 345.253906 C 506.480469 345.082031 504.609375 344.816406 502.753906 344.460938 C 500.898438 344.105469 499.066406 343.65625 497.253906 343.117188 C 495.445312 342.582031 493.664062 341.953125 491.914062 341.242188 C 490.164062 340.527344 488.453125 339.730469 486.785156 338.847656 C 485.113281 337.964844 483.488281 337 481.914062 335.957031 C 480.335938 334.914062 478.816406 333.796875 477.351562 332.605469 C 475.886719 331.414062 474.484375 330.152344 473.140625 328.820312 C 471.800781 327.488281 470.527344 326.09375 469.324219 324.636719 C 468.121094 323.179688 466.992188 321.667969 465.9375 320.101562 C 464.882812 318.53125 463.910156 316.914062 463.015625 315.25 C 462.121094 313.585938 461.308594 311.882812 460.582031 310.136719 C 459.855469 308.394531 459.21875 306.617188 458.667969 304.8125 C 458.117188 303.003906 457.65625 301.171875 457.285156 299.320312 C 456.914062 297.46875 456.636719 295.601562 456.449219 293.71875 C 456.261719 291.839844 456.167969 289.953125 456.167969 288.066406 C 456.148438 286.203125 456.222656 284.347656 456.386719 282.492188 C 456.546875 280.636719 456.804688 278.796875 457.148438 276.964844 C 457.492188 275.136719 457.925781 273.328125 458.445312 271.539062 C 458.96875 269.753906 459.578125 267.996094 460.273438 266.269531 C 460.964844 264.542969 461.742188 262.851562 462.605469 261.203125 C 463.464844 259.550781 464.402344 257.945312 465.421875 256.386719 C 466.441406 254.828125 467.53125 253.324219 468.699219 251.875 C 469.863281 250.421875 471.097656 249.03125 472.402344 247.699219 C 473.703125 246.371094 475.066406 245.109375 476.492188 243.910156 C 477.921875 242.714844 479.402344 241.59375 480.9375 240.542969 C 482.476562 239.492188 484.058594 238.519531 485.691406 237.621094 C 487.324219 236.726562 488.996094 235.914062 490.710938 235.183594 C 492.421875 234.453125 494.164062 233.808594 495.941406 233.25 C 497.71875 232.6875 499.515625 232.21875 501.335938 231.835938 C 503.160156 231.453125 504.996094 231.160156 506.847656 230.957031 C 508.695312 230.753906 510.554688 230.644531 512.414062 230.621094 Z M 512.414062 230.621094 " fill-opacity="1" fill-rule="nonzero"/></g></svg>