<svg xmlns="http://www.w3.org/2000/svg" xmlns:xlink="http://www.w3.org/1999/xlink" width="1366" zoomAndPan="magnify" viewBox="0 0 1024.5 576" height="768" preserveAspectRatio="xMidYMid meet" version="1.0"><defs><clipPath id="018c6f04eb"><path d="M 401 172.941406 L 580 172.941406 L 580 350 L 401 350 Z M 401 172.941406 " clip-rule="nonzero"/></clipPath><clipPath id="58d0e577e1"><path d="M 555 328 L 631 328 L 631 403.191406 L 555 403.191406 Z M 555 328 " clip-rule="nonzero"/></clipPath></defs><g clip-path="url(#018c6f04eb)"><path fill="#bf53f9" d="M 490.382812 349.765625 C 466.726562 349.765625 444.476562 340.582031 427.734375 323.890625 C 393.152344 289.386719 393.121094 233.253906 427.675781 198.765625 C 444.425781 182.03125 466.703125 172.816406 490.398438 172.816406 C 514.066406 172.816406 536.320312 182.011719 553.0625 198.714844 C 569.820312 215.410156 579.050781 237.617188 579.0625 261.246094 C 579.074219 284.871094 569.863281 307.089844 553.125 323.808594 C 536.371094 340.550781 514.085938 349.765625 490.382812 349.765625 Z M 490.398438 181.40625 C 469 181.40625 448.890625 189.726562 433.765625 204.835938 C 402.570312 235.976562 402.59375 286.660156 433.824219 317.816406 C 448.9375 332.878906 469.023438 341.175781 490.382812 341.175781 C 511.785156 341.175781 531.902344 332.851562 547.035156 317.734375 C 562.144531 302.640625 570.460938 282.582031 570.449219 261.25 C 570.441406 239.917969 562.105469 219.867188 546.980469 204.792969 C 531.863281 189.710938 511.765625 181.40625 490.398438 181.40625 Z M 490.398438 181.40625 " fill-opacity="1" fill-rule="nonzero"/></g><g clip-path="url(#58d0e577e1)"><path fill="#bf53f9" d="M 609.761719 403.191406 C 606.316406 403.191406 603.074219 401.851562 600.640625 399.414062 L 559.042969 357.933594 C 556.621094 355.539062 555.273438 352.320312 555.265625 348.882812 C 555.253906 345.433594 556.597656 342.191406 559.035156 339.757812 L 566.722656 332.058594 C 569.167969 329.625 572.40625 328.289062 575.84375 328.289062 C 579.296875 328.289062 582.535156 329.632812 584.96875 332.078125 L 626.578125 373.527344 C 631.605469 378.5625 631.609375 386.730469 626.585938 391.738281 L 618.890625 399.429688 C 616.433594 401.859375 613.199219 403.191406 609.761719 403.191406 Z M 575.847656 336.882812 C 574.703125 336.882812 573.628906 337.324219 572.816406 338.132812 L 565.128906 345.824219 C 564.320312 346.636719 563.875 347.710938 563.878906 348.863281 C 563.882812 349.992188 564.324219 351.054688 565.117188 351.839844 L 606.734375 393.339844 C 608.355469 394.964844 611.183594 394.957031 612.808594 393.34375 L 620.496094 385.664062 C 622.164062 384 622.160156 381.28125 620.484375 379.601562 L 578.875 338.148438 C 578.058594 337.324219 576.988281 336.882812 575.847656 336.882812 Z M 575.847656 336.882812 " fill-opacity="1" fill-rule="nonzero"/></g><path fill="#bf53f9" d="M 565.023438 342.328125 C 563.921875 342.328125 562.820312 341.90625 561.980469 341.070312 L 546.449219 325.570312 C 544.765625 323.890625 544.765625 321.171875 546.449219 319.496094 C 548.128906 317.816406 550.855469 317.816406 552.535156 319.496094 L 568.066406 334.996094 C 569.746094 336.671875 569.746094 339.394531 568.066406 341.070312 C 567.226562 341.90625 566.128906 342.328125 565.023438 342.328125 Z M 565.023438 342.328125 " fill-opacity="1" fill-rule="nonzero"/><path fill="#bf53f9" d="M 490.402344 312.699219 C 489.382812 312.699219 488.394531 312.40625 487.457031 311.816406 C 474.332031 302.4375 464.417969 294.007812 456.050781 285.144531 C 451.339844 280.078125 447.871094 275.476562 445.125 270.640625 C 439.855469 261.367188 440.351562 251.460938 446.601562 241.207031 C 451.074219 233.921875 457.429688 229.488281 465.507812 228.015625 C 474.90625 226.316406 484.421875 229.957031 490.394531 237.222656 C 490.957031 236.542969 491.542969 235.898438 492.167969 235.273438 C 496.980469 230.421875 503.78125 227.628906 510.804688 227.628906 C 516.890625 227.628906 522.769531 229.710938 527.351562 233.488281 C 535.011719 239.8125 539.027344 248.121094 539.292969 258.191406 C 539.390625 262.953125 537.527344 267.082031 535.898438 270.15625 C 532.148438 277.210938 527.050781 282.835938 522.558594 287.402344 C 514.621094 295.46875 505.199219 303.34375 493.75 311.488281 C 493.289062 311.839844 492.144531 312.699219 490.402344 312.699219 Z M 470.261719 236.175781 C 469.199219 236.175781 468.121094 236.277344 467.050781 236.464844 C 461.414062 237.492188 457.128906 240.503906 453.957031 245.675781 C 449.332031 253.269531 448.902344 259.863281 452.617188 266.398438 C 455.027344 270.636719 458.117188 274.730469 462.34375 279.273438 C 469.890625 287.269531 478.84375 294.957031 490.375 303.328125 C 500.679688 295.894531 509.210938 288.703125 516.414062 281.382812 C 520.472656 277.257812 525.058594 272.21875 528.289062 266.128906 C 529.507812 263.839844 530.738281 261.136719 530.683594 258.390625 C 530.488281 250.832031 527.601562 244.84375 521.863281 240.113281 C 518.820312 237.601562 514.898438 236.222656 510.808594 236.222656 C 506.066406 236.222656 501.5 238.085938 498.273438 241.335938 C 496.695312 242.910156 495.425781 244.738281 494.261719 247.109375 C 493.554688 248.558594 492.09375 249.484375 490.484375 249.515625 C 488.988281 249.5625 487.378906 248.683594 486.609375 247.269531 L 485.914062 245.964844 C 482.695312 239.820312 476.851562 236.175781 470.261719 236.175781 Z M 470.261719 236.175781 " fill-opacity="1" fill-rule="nonzero"/><path fill="#bf53f9" d="M 518.644531 267.796875 C 517.566406 267.796875 516.492188 267.398438 515.65625 266.589844 C 513.945312 264.941406 513.890625 262.226562 515.542969 260.519531 C 516.953125 259.058594 517.523438 256.628906 516.957031 254.476562 C 516.644531 253.285156 515.882812 251.746094 514.019531 251.191406 C 511.742188 250.511719 510.449219 248.121094 511.128906 245.847656 C 511.8125 243.570312 514.21875 242.28125 516.488281 242.960938 C 520.867188 244.269531 524.070312 247.671875 525.289062 252.296875 C 526.628906 257.398438 525.265625 262.835938 521.742188 266.484375 C 520.898438 267.355469 519.769531 267.796875 518.644531 267.796875 Z M 518.644531 267.796875 " fill-opacity="1" fill-rule="nonzero"/><path fill="#bf53f9" d="M 512.34375 277.34375 C 510.078125 277.34375 508.078125 275.402344 507.925781 273.148438 C 507.839844 271.835938 508.359375 270.554688 509.339844 269.667969 C 510.316406 268.789062 511.652344 268.40625 512.949219 268.625 C 515.148438 269.003906 516.902344 271.128906 516.710938 273.351562 C 516.523438 275.574219 514.582031 277.34375 512.34375 277.34375 Z M 512.34375 277.34375 " fill-opacity="1" fill-rule="nonzero"/><path fill="#bf53f9" d="M 490.710938 331.742188 C 451.949219 331.742188 420.410156 300.277344 420.410156 261.597656 C 420.410156 222.917969 451.945312 191.449219 490.710938 191.449219 C 507.804688 191.449219 524.277344 197.648438 537.105469 208.902344 C 538.890625 210.46875 539.066406 213.183594 537.496094 214.964844 C 535.925781 216.742188 533.203125 216.921875 531.421875 215.351562 C 520.167969 205.476562 505.707031 200.039062 490.710938 200.039062 C 456.695312 200.039062 429.023438 227.652344 429.023438 261.59375 C 429.023438 295.535156 456.695312 323.148438 490.710938 323.148438 C 524.71875 323.148438 552.394531 295.535156 552.394531 261.59375 C 552.394531 250.894531 549.601562 240.359375 544.316406 231.121094 C 543.136719 229.058594 543.855469 226.4375 545.921875 225.261719 C 547.988281 224.078125 550.613281 224.796875 551.792969 226.859375 C 557.816406 237.394531 561.003906 249.402344 561.003906 261.59375 C 561.003906 300.273438 529.46875 331.742188 490.710938 331.742188 Z M 490.710938 331.742188 " fill-opacity="1" fill-rule="nonzero"/></svg>